<svg width="147" height="71" viewBox="0 0 147 71" fill="none" xmlns="http://www.w3.org/2000/svg">
<g clip-path="url(#clip0_28_17)">
<path d="M146.544 35.3955C146.544 44.8795 138.543 53.6106 125.279 59.9983C112.051 66.3684 93.7449 70.3212 73.5 70.3212C53.2551 70.3212 34.9489 66.3684 21.7212 59.9983C8.45671 53.6106 0.456543 44.8795 0.456543 35.3955C0.456543 25.9117 8.45671 17.1804 21.7212 10.7927C34.9489 4.42254 53.2551 0.469849 73.5 0.469849C93.7449 0.469849 112.051 4.42254 125.279 10.7927C138.543 17.1804 146.544 25.9117 146.544 35.3955Z" fill="#1F6FA9"/>
<path d="M26.4088 40.3709C25.318 40.3709 24.3376 40.1637 23.4676 39.7495C22.5976 39.3352 21.9028 38.7271 21.3834 37.9252C20.877 37.11 20.6238 36.1277 20.6238 34.9783C20.6238 34.1764 20.7601 33.3076 21.0328 32.3722C21.6301 30.3675 22.5326 28.9241 23.7403 28.042C24.948 27.1466 26.2401 26.6989 27.6165 26.6989C28.3566 26.6989 29.0124 26.8124 29.5838 27.0397C30.1552 27.2669 30.6811 27.5942 31.1615 28.022L31.6874 27.601C32.038 27.3203 32.3302 27.1266 32.564 27.0196C32.8106 26.9126 33.0833 26.8592 33.382 26.8592C33.7066 26.8592 33.9664 26.9327 34.1612 27.0797C34.356 27.2268 34.4533 27.4406 34.4533 27.7213C34.4533 27.8683 34.4273 28.0152 34.3754 28.1623L33.2846 31.2896C33.1678 31.6505 33.0249 31.9043 32.8561 32.0514C32.7003 32.1985 32.46 32.2719 32.1354 32.2719C31.7978 32.2719 31.5187 32.1516 31.2979 31.9111C31.0901 31.6572 30.8499 31.2295 30.5772 30.6281C30.2655 29.9999 30.0123 29.5856 29.8175 29.3852C29.6227 29.1847 29.3371 29.0844 28.9605 29.0844C28.428 29.0844 27.9152 29.4252 27.4217 30.1068C26.9282 30.7751 26.4802 31.7841 26.0777 33.1339C25.74 34.2699 25.5713 35.2188 25.5713 35.9806C25.5713 36.6489 25.6947 37.1501 25.9413 37.4841C26.188 37.8049 26.5191 37.9653 26.9347 37.9653C27.5451 37.9653 28.045 37.8249 28.4346 37.5443C28.8371 37.2636 29.2461 36.8827 29.6617 36.4016C29.9215 36.1076 30.1292 35.8937 30.285 35.7601C30.4538 35.613 30.6291 35.5396 30.8109 35.5396C31.0446 35.5396 31.2913 35.6599 31.5511 35.9004C31.8108 36.141 31.9341 36.3816 31.9212 36.6221C31.9341 36.9161 31.7004 37.3706 31.22 37.9853C30.7525 38.6 30.0968 39.1548 29.2526 39.6492C28.4216 40.1304 27.4736 40.3709 26.4088 40.3709ZM47.2775 29.6458C49.0435 29.6458 50.3421 30.0133 51.1732 30.7483C52.0173 31.4834 52.4392 32.4456 52.4392 33.6351C52.4392 34.0361 52.3873 34.4838 52.2834 34.9783C52.0367 36.0741 51.5757 37.0364 50.9005 37.865C50.2253 38.6802 49.3941 39.3152 48.4072 39.7695C47.4333 40.2105 46.375 40.4311 45.2323 40.4311C43.4273 40.4311 42.0897 40.0635 41.2198 39.3285C40.3627 38.58 39.9342 37.5911 39.9342 36.3615C39.9342 35.9473 39.9861 35.4862 40.09 34.9783C40.3367 33.9358 40.8042 33.0137 41.4925 32.2118C42.1937 31.3966 43.0442 30.7684 44.0441 30.3274C45.057 29.873 46.1348 29.6458 47.2775 29.6458ZM47.2191 31.4299C46.9464 31.4299 46.6542 31.6838 46.3425 32.1917C46.0438 32.6862 45.6868 33.6284 45.2712 35.0184C44.8557 36.4083 44.6479 37.3839 44.6479 37.9452C44.6479 38.2392 44.6934 38.4397 44.7843 38.5466C44.8751 38.6401 44.9985 38.687 45.1544 38.687C45.4271 38.7137 45.7063 38.4732 45.9919 37.9653C46.2907 37.4574 46.6607 36.4685 47.1022 34.9983C47.5047 33.702 47.706 32.7598 47.706 32.1717C47.706 31.891 47.6605 31.6973 47.5697 31.5903C47.4918 31.4834 47.3749 31.4299 47.2191 31.4299ZM71.2017 37.4841C71.1757 37.5376 71.1627 37.6177 71.1627 37.7247C71.1627 37.8182 71.1822 37.8918 71.2212 37.9452C71.273 37.9986 71.338 38.0254 71.4159 38.0254C71.5718 38.0254 71.7016 37.9585 71.8055 37.8249C71.9224 37.6779 72.0003 37.6044 72.0392 37.6044C72.1042 37.6044 72.1561 37.6513 72.1951 37.7448C72.234 37.8249 72.2535 37.9252 72.2535 38.0455C72.2664 38.4331 72.1432 38.814 71.8834 39.1881C71.6237 39.549 71.2406 39.8497 70.7342 40.0903C70.2407 40.3175 69.6434 40.4311 68.9422 40.4311C68.0852 40.4311 67.4034 40.2306 66.897 39.8296C66.3905 39.4154 66.1308 38.8674 66.1178 38.1858C66.1178 37.6913 66.2347 37.1366 66.4685 36.5219L67.5398 33.6351C67.6047 33.4614 67.6372 33.3211 67.6372 33.2141C67.6372 33.0404 67.5787 32.9067 67.4619 32.8132C67.3579 32.7062 67.2281 32.6528 67.0723 32.6528C66.7866 32.6528 66.514 32.7931 66.2542 33.0738C65.9944 33.3411 65.8062 33.6752 65.6893 34.0762L64.4817 38.1657C64.4298 38.3128 64.4038 38.4531 64.4038 38.5867C64.4038 38.7471 64.4362 38.8807 64.5011 38.9877C64.5661 39.0812 64.657 39.1814 64.7738 39.2884C64.8647 39.3686 64.9297 39.442 64.9686 39.5089C65.0076 39.5758 65.0141 39.656 64.9881 39.7495C64.9362 39.9231 64.8128 40.0502 64.618 40.1304C64.4232 40.2105 64.1181 40.2506 63.7025 40.2506H59.2615C58.9238 40.2506 58.6837 40.1972 58.5408 40.0903C58.385 39.97 58.3265 39.8163 58.3655 39.6292C58.4174 39.4688 58.5537 39.3285 58.7745 39.2082C58.9693 39.1012 59.1317 38.9744 59.2615 38.8273C59.3913 38.6802 59.5018 38.4464 59.5926 38.1257L61.3262 32.3321C61.3522 32.2652 61.3652 32.1717 61.3652 32.0514C61.3652 31.9043 61.3327 31.7908 61.2678 31.7106C61.2159 31.6304 61.1249 31.5302 60.9951 31.4099C60.8653 31.3029 60.7743 31.2094 60.7224 31.1292C60.6705 31.0491 60.6639 30.9421 60.7029 30.8085C60.7808 30.5011 61.1898 30.2339 61.93 30.0066C62.6702 29.766 63.4428 29.6458 64.2479 29.6458C64.8973 29.6458 65.4101 29.8329 65.7867 30.2071C66.1633 30.5679 66.3321 31.0758 66.2931 31.7307C66.8256 30.9421 67.3905 30.4008 67.9878 30.1068C68.585 29.7994 69.2344 29.6458 69.9356 29.6458C70.7277 29.6458 71.364 29.8931 71.8445 30.3875C72.338 30.8819 72.5846 31.5234 72.5846 32.312C72.5846 32.7263 72.5197 33.1339 72.3898 33.5349L71.2017 37.4841ZM86.7808 29.5455C87.5728 29.5455 88.2677 29.6658 88.865 29.9064C89.4622 30.1336 89.9233 30.4544 90.2479 30.8686C90.5856 31.2696 90.7543 31.7173 90.7543 32.2118C90.7543 32.7463 90.5725 33.1873 90.209 33.5349C89.8583 33.8824 89.3779 34.0561 88.7676 34.0561C88.1443 34.0561 87.6573 33.8957 87.3067 33.575C86.9561 33.2409 86.7808 32.7931 86.7808 32.2318C86.7808 31.9645 86.8197 31.6838 86.8977 31.3899C86.3523 31.5369 85.8653 31.8309 85.4368 32.2719C85.0212 32.6996 84.7421 33.2675 84.5992 33.9759C84.5213 34.3769 84.4823 34.7377 84.4823 35.0585C84.4823 35.7802 84.6771 36.3282 85.0667 36.7023C85.4563 37.0765 86.0146 37.2636 86.7418 37.2636C87.1574 37.2636 87.5144 37.2235 87.8131 37.1433C88.1118 37.0498 88.417 36.9296 88.7286 36.7825C88.9884 36.6489 89.1766 36.582 89.2935 36.582C89.3714 36.582 89.4233 36.6021 89.4493 36.6422C89.4753 36.669 89.4883 36.7357 89.4883 36.8426C89.5012 37.3371 89.3 37.8583 88.8844 38.4063C88.4819 38.9408 87.9171 39.3953 87.1898 39.7695C86.4757 40.1304 85.6705 40.3108 84.7745 40.3108C83.8396 40.3108 83.0085 40.1371 82.2813 39.7896C81.5672 39.4287 81.0087 38.9208 80.6062 38.266C80.2166 37.5977 80.0218 36.8226 80.0218 35.9405C80.0218 35.5263 80.0737 35.0652 80.1777 34.5573C80.5283 32.9001 81.3008 31.6505 82.4956 30.8085C83.7032 29.9665 85.1317 29.5455 86.7808 29.5455ZM103.844 29.6458C105.337 29.6458 106.532 29.9332 107.428 30.5078C108.324 31.0691 108.772 31.9311 108.772 33.0939C108.772 33.5349 108.694 34.0361 108.538 34.5974L107.739 37.3639C107.726 37.4173 107.72 37.4841 107.72 37.5643C107.72 37.7781 107.804 37.8851 107.973 37.8851C108.129 37.8851 108.259 37.8182 108.363 37.6846C108.479 37.5376 108.557 37.4641 108.596 37.4641C108.661 37.4641 108.713 37.5109 108.752 37.6044C108.804 37.6979 108.83 37.8049 108.83 37.9252C108.843 38.286 108.707 38.6536 108.421 39.0278C108.148 39.4019 107.778 39.7094 107.311 39.9499C106.843 40.1905 106.33 40.3108 105.772 40.3108C105.097 40.3108 104.519 40.1838 104.038 39.9299C103.558 39.676 103.227 39.3017 103.045 38.8072C102.655 39.2884 102.194 39.6625 101.662 39.9299C101.13 40.1838 100.558 40.3108 99.9479 40.3108C99.2597 40.3108 98.6818 40.1772 98.2144 39.9098C97.7469 39.6292 97.3963 39.2751 97.1625 38.8473C96.9417 38.4063 96.8314 37.9452 96.8314 37.4641C96.8314 37.2503 96.8509 37.0431 96.8898 36.8426C97.0976 35.9205 97.5456 35.2256 98.2338 34.7578C98.9351 34.2899 99.7661 34.0561 100.727 34.0561C101.805 34.0561 102.863 34.2298 103.902 34.5773L104.389 33.2542C104.558 32.6929 104.642 32.2586 104.642 31.9512C104.629 31.6304 104.525 31.3899 104.331 31.2295C104.136 31.0691 103.837 30.9889 103.435 30.9889C103.512 31.2027 103.551 31.4232 103.551 31.6505C103.551 32.1449 103.37 32.5726 103.006 32.9335C102.642 33.2943 102.123 33.4747 101.448 33.4747C100.812 33.4747 100.311 33.3344 99.9479 33.0538C99.5973 32.7598 99.422 32.3989 99.422 31.9712C99.422 31.3029 99.7856 30.7483 100.513 30.3073C101.24 29.8663 102.35 29.6458 103.844 29.6458ZM102.753 35.72C102.389 35.72 102.091 35.8671 101.857 36.161C101.636 36.4417 101.526 36.7491 101.526 37.0832C101.526 37.297 101.571 37.4708 101.662 37.6044C101.766 37.738 101.909 37.8049 102.091 37.8049C102.259 37.8049 102.441 37.738 102.636 37.6044C102.844 37.4574 102.993 37.2436 103.084 36.9629L103.493 35.7801C103.272 35.7401 103.025 35.72 102.753 35.72ZM125.821 29.6458C126.548 29.6458 127.126 29.873 127.554 30.3274C127.996 30.7817 128.217 31.343 128.217 32.0113C128.217 32.2652 128.191 32.4992 128.139 32.713C128.009 33.261 127.762 33.6819 127.399 33.9759C127.035 34.2699 126.6 34.417 126.094 34.417C125.6 34.417 125.224 34.2967 124.964 34.0561C124.717 33.8155 124.496 33.4948 124.302 33.0939C124.198 32.8666 124.1 32.6996 124.009 32.5927C123.919 32.4857 123.815 32.4323 123.698 32.4323C123.568 32.4323 123.451 32.4857 123.347 32.5927C123.256 32.6996 123.172 32.8866 123.094 33.154L121.594 38.1657C121.568 38.2326 121.555 38.3329 121.555 38.4664C121.555 38.6401 121.601 38.7872 121.691 38.9075C121.795 39.0145 121.932 39.1213 122.101 39.2282C122.256 39.3352 122.36 39.422 122.412 39.4888C122.464 39.5557 122.484 39.6425 122.471 39.7495C122.445 39.9231 122.347 40.0502 122.178 40.1304C122.023 40.2105 121.75 40.2506 121.36 40.2506H116.374C116.036 40.2506 115.796 40.1972 115.653 40.0903C115.497 39.97 115.439 39.8163 115.478 39.6292C115.53 39.4688 115.666 39.3285 115.887 39.2082C116.082 39.1012 116.244 38.9744 116.374 38.8273C116.504 38.6802 116.614 38.4464 116.705 38.1257L118.439 32.3321C118.465 32.2652 118.478 32.1717 118.478 32.0514C118.478 31.9043 118.445 31.7908 118.38 31.7106C118.328 31.6304 118.237 31.5302 118.107 31.4099C117.978 31.3029 117.887 31.2094 117.835 31.1292C117.783 31.0491 117.776 30.9421 117.815 30.8085C117.893 30.5011 118.302 30.2339 119.042 30.0066C119.783 29.766 120.555 29.6458 121.36 29.6458C121.893 29.6458 122.334 29.7728 122.685 30.0267C123.035 30.2672 123.263 30.6148 123.367 31.0691C123.99 30.1202 124.808 29.6458 125.821 29.6458Z" fill="white"/>
</g>
<defs>
<clipPath id="clip0_28_17">
<rect width="147" height="70.791" fill="white"/>
</clipPath>
</defs>
</svg>
